<svg viewBox="0 0 98 98" fill="none" xmlns="http://www.w3.org/2000/svg">
<rect width="98" height="98" fill="#55644A"/>
<path d="M49 30.043L51.2578 33.3908C52.4462 35.1528 53.0403 36.0338 53.8396 36.3389C54.3361 36.5285 54.8776 36.5675 55.3962 36.4512C56.231 36.2639 56.9455 35.4773 58.3743 33.9042L66.5795 24.8704M49 30.043L45.791 25.2849C44.0572 22.714 45.8992 19.25 49 19.25C52.1008 19.25 53.9428 22.714 52.209 25.2849L49 30.043ZM49 30.043L46.7421 33.3908C45.5538 35.1528 44.9597 36.0338 44.1604 36.3389C43.6638 36.5285 43.1224 36.5675 42.6038 36.4512C41.769 36.2639 41.0545 35.4773 39.6256 33.9041L31.4205 24.8704M49 67.957L46.7421 64.6092C45.5538 62.8472 44.9597 61.9662 44.1604 61.6611C43.6638 61.4715 43.1224 61.4324 42.6038 61.5488C41.769 61.7361 41.0545 62.5227 39.6257 64.0958L31.4205 73.1296M49 67.957L52.209 72.7151C53.9428 75.2859 52.1008 78.75 49 78.75C45.8992 78.75 44.0572 75.2859 45.791 72.7151L49 67.957ZM49 67.957L51.2578 64.6092C52.4462 62.8472 53.0403 61.9662 53.8396 61.6611C54.3362 61.4715 54.8776 61.4324 55.3962 61.5488C56.231 61.7361 56.9455 62.5227 58.3743 64.0958L66.5795 73.1296M67.957 49L64.6092 51.2578C62.8472 52.4462 61.9662 53.0403 61.6611 53.8396C61.4715 54.3362 61.4324 54.8776 61.5488 55.3962C61.7361 56.231 62.5227 56.9455 64.0958 58.3743L73.1296 66.5795M67.957 49L72.7151 45.791C75.2859 44.0572 78.75 45.8992 78.75 49C78.75 52.1008 75.2859 53.9428 72.7151 52.209L67.957 49ZM67.957 49L64.6092 46.7421C62.8472 45.5538 61.9662 44.9597 61.6611 44.1604C61.4715 43.6638 61.4324 43.1224 61.5488 42.6038C61.7361 41.769 62.5227 41.0545 64.0958 39.6256L73.1296 31.4205M30.043 49L33.3908 46.7422C35.1528 45.5538 36.0338 44.9597 36.3389 44.1604C36.5285 43.6638 36.5675 43.1224 36.4512 42.6038C36.2639 41.769 35.4773 41.0545 33.9042 39.6257L24.8704 31.4205M30.043 49L25.2849 52.209C22.714 53.9428 19.25 52.1008 19.25 49C19.25 45.8992 22.714 44.0572 25.2849 45.791L30.043 49ZM30.043 49L33.3908 51.2579C35.1528 52.4462 36.0338 53.0403 36.3389 53.8396C36.5285 54.3362 36.5675 54.8776 36.4512 55.3962C36.2639 56.231 35.4773 56.9455 33.9041 58.3744L24.8704 66.5795" stroke="white" stroke-width="4" stroke-linecap="round" stroke-linejoin="round"/>
</svg>
